<?xml version="1.0" encoding="UTF-8"?>
<svg width="85" height="24" viewBox="0 0 85 24" fill="none" xmlns="http://www.w3.org/2000/svg">
<g clip-path="url(#clip0_105_309)">
<path d="M0 23.97V0.249987H23.6V23.97H0ZM4.86 3.94999V20.97L19.65 12.27L4.86 3.94999ZM31.54 23.72H27.47V13.15H31.57C34.6 13.15 36.43 15.55 36.43 18.61C36.43 21.67 34.81 23.72 31.55 23.72H31.54ZM35.16 10.75L34.35 8.39999H30.46L29.75 10.75H27.63L31.18 0.149987H33.33L37.33 10.75H35.16ZM31.37 14.95H29.7V22.08H31.5C33.88 22.08 34.23 20.06 34.21 18.51C34.21 17.3 33.63 14.94 31.38 14.94L31.37 14.95ZM33.62 6.27999L32.28 2.38999L31.09 6.25999L31.01 6.91999H33.64C33.64 6.56999 33.67 6.48999 33.61 6.28999L33.62 6.27999ZM37.19 23.73V13.15H44.98V14.92H39.32V17.17H44.33V19.09H39.35V21.92H45.17V23.72H37.2L37.19 23.73ZM44.52 10.76L39.87 3.59999V10.76H37.75V0.149987H39.92L44.4 7.20999V0.149987H46.52V10.75H44.52V10.76ZM51.17 23.71H49.15L45.66 13.72V13.16H47.78L50.16 20.9L52.49 13.19H54.56V13.75L51.17 23.71ZM54.53 10.76L53.72 8.40999H49.83L49.12 10.76H47L50.55 0.149987H52.7L56.7 10.75H54.53V10.76ZM53.01 6.32999L51.67 2.32999L50.33 6.32999V6.90999H53.06C53.06 6.55999 53.06 6.50999 53.01 6.32999ZM55.21 23.7V13.18H57.46V23.7H55.21ZM57.16 10.75V0.149987H59.26V8.94999H63.99V10.75H57.16ZM63.05 23.98C57.26 24.11 56.25 12.93 63.08 13C66.87 13 67.53 16.16 67.68 16.64H65.58C65.25 15.98 64.39 14.72 63.33 14.64C59.59 14.39 59.59 22.3 63.33 22.3C65.13 22.3 65.56 20.5 65.66 20.3H67.71C67.71 20.3 67.46 23.92 63.06 23.97L63.05 23.98ZM68.87 10.93C62.06 10.93 62.31 -0.0500129 68.94 -1.28574e-05C75.34 0.0499871 75.52 10.93 68.86 10.93H68.87ZM68.79 9.15999C72.71 9.18999 72.71 1.84999 68.87 1.79999C65.05 1.76999 64.92 9.12999 68.79 9.15999ZM68.08 23.73V13.15H75.59V15.07H70.1V17.24H74.96V19.14H70.13V21.92H75.85V23.72H68.09L68.08 23.73ZM82.34 10.5V9.48999C82.11 9.68999 81.1 10.98 79.2 10.93C72.73 10.78 72.7 0.159987 79.5 0.0299871C81.14 0.0299871 82.51 1.06999 83.04 1.79999C83.67 2.62999 83.72 3.33999 83.75 3.51999H81.95C81.55 2.85999 80.91 1.74999 79.42 1.74999C75.47 1.69999 75.22 9.15999 79.39 9.23999C81.24 9.28999 82.17 7.36999 82.17 7.33999V6.77999H79.64V5.13999H83.99V10.5H82.32H82.34ZM80.37 24C75.89 24 75.94 20.56 75.94 20.56H77.96C77.96 20.56 77.81 22.23 80.06 22.38C80.62 22.41 82.44 22.18 82.44 20.91C82.44 19.44 80.59 19.52 79.43 19.19C78.27 18.89 76.07 18.38 76.07 16.33C76.07 14.53 77.54 12.99 80.37 12.99C84.16 13.02 84.14 15.95 84.16 16.13H82.21C82.08 15.7 81.96 14.66 80.26 14.61C79.43 14.61 78.16 14.89 78.16 15.87C78.16 17.11 79.58 17.29 81.07 17.51C83.32 17.94 84.61 18.62 84.53 20.7C84.48 22.52 82.86 23.99 80.36 23.99L80.37 24Z" fill="white"/>
</g>
<defs>
<clipPath id="clip0_105_309">
<rect width="85" height="24" fill="white"/>
</clipPath>
</defs>
</svg>
