<?xml version="1.0" encoding="UTF-8" standalone="no"?>
<svg width="17" height="16" viewBox="0 0 17 16" fill="none" xmlns="http://www.w3.org/2000/svg">
<path d="M8.49976 9.99988C9.60433 9.99988 10.4998 9.10445 10.4998 7.99988C10.4998 6.89531 9.60433 5.99988 8.49976 5.99988C7.39519 5.99988 6.49976 6.89531 6.49976 7.99988C6.49976 9.10445 7.39519 9.99988 8.49976 9.99988Z" fill="white"/>
<path fill-rule="evenodd" clip-rule="evenodd" d="M1.75433 6.12868C2.07075 4.98452 2.67324 3.93974 3.50503 3.09278C3.8299 3.30399 4.20686 3.42119 4.59421 3.43142C4.98157 3.44166 5.3642 3.34452 5.69976 3.15076C6.03533 2.957 6.31074 2.67418 6.49552 2.33359C6.6803 1.993 6.76724 1.60792 6.74673 1.22098C7.89621 0.923914 9.10239 0.924396 10.2516 1.22238C10.2313 1.60931 10.3184 1.99433 10.5033 2.33482C10.6883 2.67532 10.9638 2.95801 11.2994 3.15162C11.635 3.34523 12.0177 3.44221 12.405 3.43182C12.7924 3.42144 13.1693 3.3041 13.494 3.09278C13.8993 3.50578 14.2591 3.97548 14.5615 4.49978C14.8646 5.02408 15.0914 5.57078 15.2461 6.12798C14.9008 6.30361 14.6108 6.57134 14.4082 6.90155C14.2056 7.23176 14.0983 7.61159 14.0981 7.999C14.098 8.38641 14.205 8.76631 14.4074 9.09668C14.6097 9.42704 14.8995 9.69499 15.2447 9.87088C14.9283 11.015 14.3258 12.0598 13.494 12.9068C13.1692 12.6956 12.7922 12.5784 12.4048 12.5681C12.0175 12.5579 11.6349 12.655 11.2993 12.8488C10.9637 13.0426 10.6883 13.3254 10.5035 13.666C10.3188 14.0066 10.2318 14.3916 10.2523 14.7786C9.10285 15.0756 7.89667 15.0752 6.74743 14.7772C6.76776 14.3902 6.68065 14.0052 6.49572 13.6647C6.3108 13.3242 6.03528 13.0415 5.69965 12.8479C5.36402 12.6543 4.98137 12.5573 4.59404 12.5677C4.20671 12.5781 3.8298 12.6955 3.50503 12.9068C3.09132 12.4846 2.73265 12.0119 2.43753 11.4998C2.14162 10.9881 1.9116 10.441 1.75293 9.87158C2.09824 9.69595 2.38825 9.42822 2.59085 9.098C2.79345 8.76779 2.90077 8.38797 2.90091 8.00056C2.90106 7.61314 2.79403 7.23324 2.59167 6.90288C2.38931 6.57251 2.09951 6.30457 1.75433 6.12868ZM4.17039 10.5012L4.16889 10.4986C4.15173 10.4689 4.13488 10.4391 4.11834 10.4091C4.18068 10.3232 4.23981 10.2348 4.29556 10.1439C4.69112 9.49924 4.90063 8.75768 4.90091 8.0013C4.90119 7.24493 4.69224 6.50321 4.29716 5.85822C4.24075 5.76613 4.18086 5.67652 4.11767 5.58956C4.15098 5.5289 4.18554 5.46894 4.22134 5.40972C4.32746 5.42087 4.43423 5.4279 4.54139 5.43073C5.29765 5.45071 6.04469 5.26106 6.69984 4.88276C7.35499 4.50447 7.8927 3.95229 8.25347 3.28733C8.3046 3.19307 8.3519 3.09707 8.39531 2.99956C8.46452 2.99816 8.53375 2.99819 8.60297 2.99967C8.64666 3.09784 8.69429 3.19448 8.74581 3.28934C9.10685 3.95412 9.64478 4.50604 10.3001 4.88404C10.9553 5.26204 11.7024 5.45138 12.4586 5.43111C12.5651 5.42825 12.6712 5.42126 12.7766 5.41019C12.7943 5.43954 12.8118 5.46915 12.829 5.49902L12.83 5.50076C12.8473 5.53059 12.8642 5.5605 12.8807 5.59049C12.8184 5.67634 12.7592 5.76477 12.7035 5.85562C12.3079 6.50031 12.0984 7.24187 12.0981 7.99825C12.0979 8.75463 12.3068 9.49634 12.7019 10.1413C12.7583 10.2334 12.8182 10.323 12.8814 10.41C12.8481 10.4707 12.8135 10.5306 12.7777 10.5898C12.6716 10.5787 12.5648 10.5717 12.4577 10.5688C11.7014 10.5489 10.9544 10.7385 10.2992 11.1168C9.64407 11.4951 9.10636 12.0473 8.74559 12.7122C8.69446 12.8065 8.64716 12.9025 8.60375 13C8.53454 13.0014 8.4653 13.0014 8.39609 12.9999C8.3524 12.9017 8.30477 12.8051 8.25325 12.7102C7.89221 12.0454 7.35429 11.4935 6.69901 11.1155C6.04373 10.7375 5.29665 10.5482 4.54043 10.5684C4.43395 10.5713 4.32787 10.5783 4.22242 10.5894C4.20478 10.5602 4.18744 10.5308 4.17039 10.5012Z" fill="white"/>
</svg>

